<svg xmlns="http://www.w3.org/2000/svg" xmlns:xlink="http://www.w3.org/1999/xlink" width="1024" zoomAndPan="magnify" viewBox="0 0 768 767.999994" height="1024" preserveAspectRatio="xMidYMid meet" version="1.0"><defs><clipPath id="acfe223f9f"><path d="M 2.09375 0 L 765.59375 0 L 765.59375 768 L 2.09375 768 Z M 2.09375 0 " clip-rule="nonzero"/></clipPath></defs><g clip-path="url(#acfe223f9f)"><path fill="#ffffff" d="M 654.273438 111.90625 C 582.515625 40.042969 487.085938 0.390625 385.398438 0.390625 C 175.882812 0.390625 5.355469 170.945312 5.28125 380.621094 C 5.28125 447.632812 22.765625 513.085938 56.027344 570.71875 L 2.09375 767.761719 L 203.609375 714.867188 C 259.136719 745.183594 321.640625 761.121094 385.246094 761.160156 L 385.398438 761.160156 C 594.878906 761.160156 765.441406 590.566406 765.480469 380.925781 C 765.480469 279.3125 726.035156 183.808594 654.238281 111.90625 Z M 385.398438 696.957031 L 385.285156 696.957031 C 328.621094 696.957031 272.980469 681.707031 224.46875 652.90625 L 212.9375 646.039062 L 93.351562 677.417969 L 125.25 560.777344 L 117.738281 548.828125 C 86.105469 498.515625 69.417969 440.347656 69.457031 380.625 C 69.53125 206.386719 211.269531 64.589844 385.511719 64.589844 C 469.902344 64.589844 549.210938 97.527344 608.875 157.285156 C 668.535156 217.011719 701.34375 296.425781 701.304688 380.886719 C 701.230469 555.164062 559.492188 696.957031 385.363281 696.957031 Z M 558.695312 460.265625 C 549.210938 455.523438 502.523438 432.53125 493.800781 429.378906 C 485.074219 426.191406 478.78125 424.636719 472.445312 434.125 C 466.113281 443.648438 447.90625 465.046875 442.367188 471.382812 C 436.832031 477.71875 431.292969 478.515625 421.773438 473.738281 C 412.289062 468.992188 381.683594 458.9375 345.386719 426.574219 C 317.167969 401.378906 298.089844 370.265625 292.550781 360.742188 C 287.011719 351.214844 291.980469 346.09375 296.722656 341.351562 C 300.972656 337.101562 306.203125 330.234375 310.984375 324.695312 C 315.726562 319.15625 317.316406 315.171875 320.464844 308.832031 C 323.652344 302.496094 322.058594 296.957031 319.667969 292.175781 C 317.28125 287.433594 298.316406 240.648438 290.390625 221.640625 C 282.6875 203.121094 274.839844 205.628906 269.035156 205.324219 C 263.496094 205.058594 257.164062 204.980469 250.828125 204.980469 C 244.496094 204.980469 234.214844 207.335938 225.492188 216.859375 C 216.769531 226.382812 192.269531 249.375 192.269531 296.121094 C 192.269531 342.871094 226.289062 388.058594 231.070312 394.433594 C 235.808594 400.769531 298.050781 496.730469 393.328125 537.898438 C 415.96875 547.6875 433.683594 553.53125 447.488281 557.933594 C 470.246094 565.179688 490.953125 564.15625 507.300781 561.691406 C 525.546875 558.957031 563.472656 538.695312 571.402344 516.5 C 579.328125 494.300781 579.328125 475.292969 576.9375 471.308594 C 574.550781 467.324219 568.214844 464.972656 558.734375 460.191406 Z M 558.695312 460.265625 " fill-opacity="1" fill-rule="evenodd"/></g></svg>